<svg width="40" height="40" viewBox="0 0 43 44" fill="none" xmlns="http://www.w3.org/2000/svg">
<path d="M0.980646 38.4482C0.00433534 39.4245 0.00433546 41.0074 0.980646 41.9837C1.95696 42.96 3.53987 42.96 4.51618 41.9837L20.9644 25.5355L37.9482 42.5193C38.9245 43.4956 40.5075 43.4956 41.4838 42.5193C42.4601 41.543 42.4601 39.96 41.4838 38.9837L24.5 21.9999L41.4837 5.01618C42.46 4.03987 42.46 2.45696 41.4837 1.48065C40.5074 0.504335 38.9245 0.504336 37.9482 1.48065L20.9644 18.4644L4.51621 2.01618C3.5399 1.03987 1.95698 1.03987 0.980673 2.01618C0.00436258 2.99249 0.00436342 4.5754 0.980673 5.55171L17.4289 21.9999L0.980646 38.4482Z" fill="#F21D2F"/>
</svg>
